<svg width="1123" height="759" viewBox="0 0 1123 759" fill="none" xmlns="http://www.w3.org/2000/svg">
<path d="M230.282 758.703H99.1824C96.8793 758.703 95.0116 756.836 95.0116 754.533V752.241C95.0116 749.938 96.8793 748.071 99.1824 748.071H230.28C232.583 748.071 234.45 749.938 234.45 752.241V754.533C234.453 756.836 232.585 758.703 230.282 758.703Z" fill="#ADBEC4"/>
<path d="M1061 758.703H1025.13C1022.82 758.703 1020.96 756.836 1020.96 754.533V752.241C1020.96 749.938 1022.82 748.071 1025.13 748.071H1061C1063.3 748.071 1065.17 749.938 1065.17 752.241V754.533C1065.16 756.836 1063.3 758.703 1061 758.703Z" fill="#ADBEC4"/>
<path d="M476.995 758.703H345.895C343.592 758.703 341.725 756.836 341.725 754.533V752.241C341.725 749.938 343.592 748.071 345.895 748.071H476.995C479.298 748.071 481.166 749.938 481.166 752.241V754.533C481.166 756.836 479.3 758.703 476.995 758.703Z" fill="#ADBEC4"/>
<path d="M669.493 758.703H538.395C536.092 758.703 534.225 756.836 534.225 754.533V752.241C534.225 749.938 536.092 748.071 538.395 748.071H669.493C671.796 748.071 673.663 749.938 673.663 752.241V754.533C673.663 756.836 671.796 758.703 669.493 758.703Z" fill="#ADBEC4"/>
<path d="M905.247 758.703H726.534C724.231 758.703 722.364 756.836 722.364 754.533V752.241C722.364 749.938 724.231 748.071 726.534 748.071H905.247C907.55 748.071 909.418 749.938 909.418 752.241V754.533C909.418 756.836 907.55 758.703 905.247 758.703Z" fill="#ADBEC4"/>
<path d="M274.224 163.25C274.224 163.25 260.377 153.83 240.125 161.084C219.873 168.341 215.324 195.614 220.313 217.748C225.302 239.882 197.42 315.45 197.42 315.45C197.42 315.45 211.912 335.831 262.558 328.032C262.558 328.032 300.324 259.401 297.521 210.13C294.718 160.858 274.224 163.25 274.224 163.25Z" fill="#0E3944"/>
<path d="M290.212 248.387C309.246 242.301 320.895 258.149 331.801 287.647C342.707 317.144 346.376 320.102 346.376 320.102L388.471 347.149L384.972 362.913C384.972 362.913 344.908 347.227 335.222 337.249C325.536 327.273 297.671 276.731 297.671 276.731L290.212 248.387Z" fill="#FFBD9A"/>
<path d="M197.442 438.951C197.442 438.951 189.183 480.775 190.544 543.731C190.544 543.731 158.001 591.72 184.858 728.639H198.945C198.945 728.639 210.454 612.146 219.259 580.581C228.065 549.016 260.579 539.33 262.34 443.352L197.442 438.951Z" fill="#FFBD9A"/>
<path d="M133.055 561.932C124.868 534.954 103.829 489.771 49.8565 428.525C49.8565 428.525 46.6374 426.867 42.2859 429.527C37.6916 432.334 37.6916 435.632 37.6916 435.632C37.6916 435.632 64.7552 494.612 82.014 537.826C87.8241 552.375 101.88 561.932 117.545 561.932H133.055Z" fill="#FFBD9A"/>
<path d="M231.322 614.097C231.322 614.097 231.507 634.225 218.3 634.567C199.652 635.069 198.964 614.756 177.832 615.417C156.7 616.076 113.115 621.36 99.2467 588.342C92.0876 571.278 101.888 549.38 78.7759 532.87C55.6618 516.361 66.8893 497.87 78.7759 487.965C90.6625 478.086 73.6511 467.256 86.0397 462.21C88.997 461.02 91.9044 461.153 94.5977 462.05C96.1823 462.605 97.6621 463.371 99.0873 464.323C105.637 468.681 110.234 476.261 110.234 476.261C145.235 380.4 207.549 367.748 207.549 367.748L269.175 389.013C270.653 538.154 231.322 614.097 231.322 614.097Z" fill="#164353"/>
<path d="M290.212 248.388C290.212 248.388 275.835 253.239 255.383 250.134C234.931 247.029 228.283 234.189 213.908 242.454C192.326 254.862 202.426 297.566 207.846 319.771C209.866 328.051 212.426 349.802 207.553 367.753C207.553 367.753 236.29 390.113 269.18 389.002L287.124 349.975C287.124 349.975 326.145 303.281 290.212 248.388Z" fill="#3D3B40"/>
<path d="M253.696 212.566C253.696 212.566 256.087 232.768 248.614 251.147C248.614 251.147 259.285 266.9 269.468 256.534C269.468 256.534 270.398 238.018 281.837 217.072C289.496 203.044 253.696 212.566 253.696 212.566Z" fill="#EF9281"/>
<path d="M237.344 213.253C237.344 213.253 228.343 207.559 229.359 216.344C230.537 226.522 240.465 228.506 241.521 224.947C242.578 221.39 237.344 213.253 237.344 213.253Z" fill="#FFBD9A"/>
<path d="M288.977 202.235C288.977 202.235 294.69 193.246 297.519 201.626C300.795 211.335 292.66 217.362 290.186 214.595C287.714 211.828 288.977 202.235 288.977 202.235Z" fill="#FFBD9A"/>
<path d="M270.393 243.676C254.069 247.33 242.468 238.732 235.307 206.75C231.612 190.253 237.741 178.255 256.025 174.162C274.312 170.068 284.276 178.462 287.971 194.959C295.665 229.322 287.257 239.9 270.393 243.676Z" fill="#FFBD9A"/>
<path d="M285.118 207.574C285.773 209.152 284.704 211.093 282.732 211.909C280.76 212.725 278.63 212.111 277.978 210.534C277.324 208.956 278.392 207.015 280.365 206.199C282.335 205.383 284.464 205.999 285.118 207.574Z" fill="#EF9281"/>
<path d="M251.74 215.987C252.004 217.674 250.508 219.308 248.4 219.636C246.292 219.967 244.367 218.868 244.103 217.181C243.839 215.494 245.335 213.86 247.443 213.531C249.554 213.201 251.476 214.3 251.74 215.987Z" fill="#EF9281"/>
<path d="M273.75 192.673C273.591 192.673 273.432 192.628 273.286 192.533C270.496 190.67 266.541 191.659 266.498 191.669C266.044 191.788 265.594 191.514 265.48 191.067C265.366 190.62 265.635 190.163 266.082 190.049C266.275 190.001 270.81 188.866 274.217 191.143C274.602 191.4 274.704 191.919 274.447 192.302C274.286 192.542 274.022 192.673 273.75 192.673Z" fill="#0E3944"/>
<path d="M243.013 199.556C242.868 199.556 242.718 199.518 242.585 199.437C242.19 199.199 242.062 198.687 242.3 198.29C244.41 194.781 248.997 193.869 249.192 193.831C249.637 193.76 250.082 194.041 250.168 194.495C250.253 194.947 249.958 195.385 249.504 195.473C249.463 195.483 245.452 196.289 243.729 199.151C243.575 199.411 243.296 199.556 243.013 199.556Z" fill="#0E3944"/>
<path d="M274.467 201.631C274.919 203.658 274.374 205.507 273.248 205.756C272.123 206.009 270.841 204.569 270.386 202.542C269.932 200.515 270.477 198.666 271.604 198.414C272.73 198.164 274.012 199.601 274.467 201.631Z" fill="#1A4850"/>
<path d="M251.785 206.511C252.24 208.538 251.695 210.386 250.567 210.636C249.442 210.888 248.16 209.449 247.705 207.422C247.251 205.395 247.795 203.546 248.923 203.294C250.051 203.044 251.331 204.484 251.785 206.511Z" fill="#1A4850"/>
<path d="M259.118 225.711C259.118 225.711 269.603 224.857 274.224 220.955C274.224 220.955 272.951 229.146 267.248 229.713C261.543 230.284 259.118 225.711 259.118 225.711Z" fill="#EF9281"/>
<path d="M268.752 201.852C268.752 201.852 269.12 196.525 271.162 196.444C273.203 196.363 275.649 200.308 275.649 200.308L278.202 198.124L275.39 199.152C275.39 199.152 272.882 195.029 270.94 195.454C268.178 196.059 268.752 201.852 268.752 201.852Z" fill="#1A4850"/>
<path d="M253.037 206.013C253.037 206.013 250.432 201.352 248.55 202.149C246.668 202.946 246.14 207.557 246.14 207.557L242.897 206.672L245.88 206.401C245.88 206.401 246.392 201.602 248.328 201.159C251.088 200.526 253.037 206.013 253.037 206.013Z" fill="#1A4850"/>
<path d="M264.407 216.253L263.567 214.659C264.926 213.943 265.042 212.974 264.9 212.294C264.7 211.328 263.915 210.562 263.346 210.517C263.02 210.5 262.739 210.778 262.52 211.359L260.831 210.728C261.554 208.785 262.923 208.678 263.484 208.718C264.919 208.827 266.315 210.236 266.67 211.925C267.034 213.695 266.189 215.313 264.407 216.253Z" fill="#EF9281"/>
<path d="M238.635 219.011C238.635 219.011 233.601 200.486 236.589 187.386C236.589 187.386 250.791 167.61 278.204 177.389C278.204 177.389 286.332 190.479 290.36 208.799C290.36 208.799 291.383 202.218 288.656 187.562C285.93 172.906 272.927 163.801 255.095 166.732C237.265 169.663 218.184 187.403 238.635 219.011Z" fill="#0E3944"/>
<path d="M267.376 173.275C267.376 173.275 268.464 178.11 263.76 190.56C263.76 190.56 260.377 187.025 256.415 190.56C252.454 194.096 244.407 192.916 241.662 194.826C238.916 196.737 238.916 201.105 238.916 201.105C238.916 201.105 236.539 195.666 238.916 189.142C238.916 189.142 233.57 195.937 234.279 204.329C234.279 204.329 227.03 203.158 227.358 191.196C227.689 179.235 244.688 159.885 263.76 161.141C282.832 162.395 287.371 192.592 287.371 192.592C287.371 192.592 285.632 191.224 282.91 191.833C282.91 191.833 282.489 185.438 278.202 177.382C278.202 177.382 280.177 183.197 278.202 189.471C278.202 189.471 272.889 186.685 268.702 187.555C268.702 187.56 271.288 182.502 267.376 173.275Z" fill="#0E3944"/>
<path d="M209.067 246.267C218.348 238.949 225.576 248.259 227.346 261.13C229.119 274.004 212.333 349.947 199.39 347.149C194.394 346.068 192.357 326.176 192.357 326.176C192.357 326.176 197.42 304.822 200.696 272.684C202.203 257.914 204.227 250.084 209.067 246.267Z" fill="#FFBD9A"/>
<path d="M182.06 336.416C169.564 324.505 147.159 284.999 141.468 264.873L150.952 261.059C150.952 261.059 179.507 301.91 192.524 312.21C205.541 322.512 210.118 333.982 204.306 343.806C198.493 353.629 184.691 338.921 182.06 336.416Z" fill="#FFBD9A"/>
<path d="M145.363 238.518C144.709 251.438 155.237 254.5 150.566 264.416C149.603 266.462 148.135 267.55 146.61 268.09C143.717 269.113 140.502 268.147 138.344 265.965C133.338 260.907 125.601 255.546 121.483 253.196C116.801 250.493 119.453 249.758 119.453 249.758C118.999 249.544 118.559 249.365 118.116 249.187C114.776 247.788 112.104 247.26 114.526 245.773C117.253 244.079 126.917 247.609 126.917 247.609C114.338 239.23 110.924 241.274 113.22 239.494C116.353 237.058 128.314 242.661 128.67 242.83C122.023 236.546 117.205 235.121 119.841 234.174C122.513 233.213 135.663 242.737 140.462 246.31C141.544 247.112 142.206 247.628 142.206 247.628C142.044 237.072 145.363 238.518 145.363 238.518Z" fill="#FFBD9A"/>
<path d="M140.467 246.315C141.549 247.117 142.211 247.634 142.211 247.634C142.211 247.634 139.96 251.421 142.874 256.327C142.874 256.327 137.521 252.811 140.467 246.315Z" fill="#EF9281"/>
<path d="M129.437 253.734C128.323 253.122 121.978 249.549 119.453 249.76C118.999 249.546 118.559 249.368 118.116 249.189C119.813 246.95 128.176 252.818 129.437 253.734Z" fill="#EF9281"/>
<path d="M179.314 445.439C179.314 446.843 178.177 447.978 176.776 447.978C175.374 447.978 174.237 446.84 174.237 445.439C174.237 444.038 175.374 442.9 176.776 442.9C178.177 442.9 179.314 444.035 179.314 445.439Z" fill="#F24052"/>
<path d="M224.615 462.914C224.615 464.318 223.478 465.453 222.076 465.453C220.675 465.453 219.538 464.316 219.538 462.914C219.538 461.513 220.675 460.376 222.076 460.376C223.478 460.376 224.615 461.513 224.615 462.914Z" fill="#F24052"/>
<path d="M263.215 472.286C263.215 473.688 262.078 474.825 260.677 474.825C259.275 474.825 258.138 473.688 258.138 472.286C258.138 470.885 259.275 469.748 260.677 469.748C262.078 469.748 263.215 470.885 263.215 472.286Z" fill="#F24052"/>
<path d="M203.906 412.282C203.906 413.686 202.769 414.821 201.367 414.821C199.966 414.821 198.829 413.684 198.829 412.282C198.829 410.881 199.966 409.744 201.367 409.744C202.769 409.744 203.906 410.881 203.906 412.282Z" fill="#F24052"/>
<path d="M209.918 438.951C211.32 438.951 212.457 437.814 212.457 436.412C212.457 435.01 211.32 433.874 209.918 433.874C208.516 433.874 207.38 435.01 207.38 436.412C207.38 437.814 208.516 438.951 209.918 438.951Z" fill="#F24052"/>
<path d="M252.625 450.164C252.625 451.568 251.488 452.703 250.087 452.703C248.685 452.703 247.548 451.566 247.548 450.164C247.548 448.763 248.685 447.626 250.087 447.626C251.488 447.626 252.625 448.761 252.625 450.164Z" fill="#F24052"/>
<path d="M258.138 408.542C258.138 409.943 257.001 411.081 255.599 411.081C254.198 411.081 253.061 409.943 253.061 408.542C253.061 407.138 254.198 406.003 255.599 406.003C257.001 406.003 258.138 407.141 258.138 408.542Z" fill="#F24052"/>
<path d="M229.278 402.421C230.68 402.421 231.817 401.284 231.817 399.882C231.817 398.48 230.68 397.343 229.278 397.343C227.876 397.343 226.739 398.48 226.739 399.882C226.739 401.284 227.876 402.421 229.278 402.421Z" fill="#F24052"/>
<path d="M156.845 494.972C156.845 496.376 155.708 497.511 154.306 497.511C152.905 497.511 151.768 496.374 151.768 494.972C151.768 493.571 152.905 492.434 154.306 492.434C155.708 492.434 156.845 493.571 156.845 494.972Z" fill="#F24052"/>
<path d="M120.657 484.175C120.657 485.576 119.52 486.714 118.119 486.714C116.717 486.714 115.58 485.576 115.58 484.175C115.58 482.771 116.717 481.636 118.119 481.636C119.52 481.636 120.657 482.774 120.657 484.175Z" fill="#F24052"/>
<path d="M99.0849 464.323C98.6352 465.011 97.8429 465.458 96.946 465.458C95.547 465.458 94.4097 464.323 94.4097 462.922C94.4097 462.605 94.4621 462.315 94.5953 462.051C96.1799 462.605 97.6597 463.372 99.0849 464.323Z" fill="#F24052"/>
<path d="M167.271 530.627C168.673 530.627 169.809 529.491 169.809 528.088C169.809 526.686 168.673 525.55 167.271 525.55C165.869 525.55 164.732 526.686 164.732 528.088C164.732 529.491 165.869 530.627 167.271 530.627Z" fill="#F24052"/>
<path d="M104.862 564.081C104.862 565.485 103.724 566.62 102.323 566.62C100.922 566.62 99.7844 565.482 99.7844 564.081C99.7844 562.68 100.922 561.542 102.323 561.542C103.724 561.542 104.862 562.677 104.862 564.081Z" fill="#F24052"/>
<path d="M128.856 544.803C130.258 544.803 131.395 543.666 131.395 542.264C131.395 540.862 130.258 539.725 128.856 539.725C127.454 539.725 126.317 540.862 126.317 542.264C126.317 543.666 127.454 544.803 128.856 544.803Z" fill="#F24052"/>
<path d="M89.3396 525.5C90.7417 525.5 91.8783 524.363 91.8783 522.961C91.8783 521.559 90.7417 520.423 89.3396 520.423C87.9376 520.423 86.801 521.559 86.801 522.961C86.801 524.363 87.9376 525.5 89.3396 525.5Z" fill="#F24052"/>
<path d="M123.776 598.97C123.776 600.371 122.639 601.509 121.238 601.509C119.836 601.509 118.699 600.371 118.699 598.97C118.699 597.566 119.836 596.431 121.238 596.431C122.639 596.431 123.776 597.569 123.776 598.97Z" fill="#F24052"/>
<path d="M147.954 465.456C147.954 466.859 146.817 467.994 145.415 467.994C144.012 467.994 142.877 466.857 142.877 465.456C142.877 464.054 144.014 462.917 145.415 462.917C146.817 462.915 147.954 464.052 147.954 465.456Z" fill="#F24052"/>
<path d="M172.351 422.689C172.351 424.093 171.213 425.228 169.812 425.228C168.411 425.228 167.273 424.09 167.273 422.689C167.273 421.288 168.411 420.15 169.812 420.15C171.213 420.15 172.351 421.288 172.351 422.689Z" fill="#F24052"/>
<path d="M199.961 387.098C199.961 388.5 198.824 389.637 197.423 389.637C196.019 389.637 194.884 388.5 194.884 387.098C194.884 385.695 196.021 384.56 197.423 384.56C198.824 384.557 199.961 385.695 199.961 387.098Z" fill="#F24052"/>
<path d="M144.007 438.951C144.007 440.355 142.87 441.49 141.468 441.49C140.067 441.49 138.93 440.352 138.93 438.951C138.93 437.55 140.067 436.412 141.468 436.412C142.87 436.412 144.007 437.547 144.007 438.951Z" fill="#F24052"/>
<path d="M174.891 397.341C174.891 398.742 173.754 399.879 172.353 399.879C170.951 399.879 169.814 398.742 169.814 397.341C169.814 395.937 170.951 394.802 172.353 394.802C173.754 394.802 174.891 395.939 174.891 397.341Z" fill="#F24052"/>
<path d="M126.317 511.681C126.317 513.085 125.18 514.22 123.779 514.22C122.375 514.22 121.24 513.083 121.24 511.681C121.24 510.28 122.377 509.143 123.779 509.143C125.18 509.143 126.317 510.28 126.317 511.681Z" fill="#F24052"/>
<path d="M94.4168 489.255C94.4168 490.659 93.2796 491.794 91.8782 491.794C90.4768 491.794 89.3396 490.656 89.3396 489.255C89.3396 487.854 90.4768 486.716 91.8782 486.716C93.2796 486.716 94.4168 487.854 94.4168 489.255Z" fill="#F24052"/>
<path d="M184.394 484.175C185.796 484.175 186.933 483.039 186.933 481.637C186.933 480.235 185.796 479.098 184.394 479.098C182.992 479.098 181.855 480.235 181.855 481.637C181.855 483.039 182.992 484.175 184.394 484.175Z" fill="#F24052"/>
<path d="M236.896 497.511C238.298 497.511 239.435 496.374 239.435 494.972C239.435 493.57 238.298 492.434 236.896 492.434C235.494 492.434 234.358 493.57 234.358 494.972C234.358 496.374 235.494 497.511 236.896 497.511Z" fill="#F24052"/>
<path d="M236.896 422.689C236.896 424.093 235.759 425.228 234.358 425.228C232.956 425.228 231.819 424.09 231.819 422.689C231.819 421.288 232.956 420.15 234.358 420.15C235.759 420.15 236.896 421.288 236.896 422.689Z" fill="#F24052"/>
<path d="M267.419 428.014C267.419 429.417 266.282 430.552 264.881 430.552C263.479 430.552 262.342 429.415 262.342 428.014C262.342 426.612 263.479 425.475 264.881 425.475C266.282 425.475 267.419 426.612 267.419 428.014Z" fill="#F24052"/>
<path d="M206.445 514.222C206.445 515.626 205.307 516.761 203.906 516.761C202.505 516.761 201.367 515.623 201.367 514.222C201.367 512.821 202.505 511.683 203.906 511.683C205.307 511.683 206.445 512.818 206.445 514.222Z" fill="#F24052"/>
<path d="M181.855 561.93C183.258 561.93 184.394 560.794 184.394 559.392C184.394 557.99 183.258 556.853 181.855 556.853C180.453 556.853 179.317 557.99 179.317 559.392C179.317 560.794 180.453 561.93 181.855 561.93Z" fill="#F24052"/>
<path d="M142.874 569.159C144.276 569.159 145.413 568.022 145.413 566.62C145.413 565.218 144.276 564.082 142.874 564.082C141.472 564.082 140.336 565.218 140.336 566.62C140.336 568.022 141.472 569.159 142.874 569.159Z" fill="#F24052"/>
<path d="M250.087 530.627C251.489 530.627 252.625 529.491 252.625 528.088C252.625 526.686 251.489 525.55 250.087 525.55C248.685 525.55 247.548 526.686 247.548 528.088C247.548 529.491 248.685 530.627 250.087 530.627Z" fill="#F24052"/>
<path d="M217.537 547.344C217.537 548.747 216.399 549.882 214.998 549.882C213.597 549.882 212.459 548.745 212.459 547.344C212.459 545.942 213.597 544.805 214.998 544.805C216.399 544.805 217.537 545.94 217.537 547.344Z" fill="#F24052"/>
<path d="M164.732 604.05C164.732 605.451 163.595 606.588 162.194 606.588C160.79 606.588 159.655 605.451 159.655 604.05C159.655 602.646 160.792 601.511 162.194 601.511C163.595 601.511 164.732 602.646 164.732 604.05Z" fill="#F24052"/>
<path d="M201.367 593.364C202.769 593.364 203.906 592.228 203.906 590.826C203.906 589.424 202.769 588.287 201.367 588.287C199.965 588.287 198.829 589.424 198.829 590.826C198.829 592.228 199.965 593.364 201.367 593.364Z" fill="#F24052"/>
<path d="M239.104 578.404C240.506 578.404 241.643 577.268 241.643 575.866C241.643 574.464 240.506 573.327 239.104 573.327C237.702 573.327 236.566 574.464 236.566 575.866C236.566 577.268 237.702 578.404 239.104 578.404Z" fill="#F24052"/>
<path d="M224.615 619.552C224.615 620.956 223.478 622.091 222.076 622.091C220.675 622.091 219.538 620.954 219.538 619.552C219.538 618.151 220.675 617.014 222.076 617.014C223.478 617.014 224.615 618.149 224.615 619.552Z" fill="#F24052"/>
<path d="M221.838 753.281H180.128C177.406 745.515 182.426 737.723 181.582 730.881C180.128 719.311 186.864 725.703 186.864 725.703C188.053 713.263 205.541 710.912 205.355 716.458C205.065 724.621 206.649 729.665 208.974 733.046C213.675 739.834 221.389 739.781 222.709 744.642C222.842 745.118 222.947 745.594 223.025 746.015C224.32 752.091 221.838 753.281 221.838 753.281Z" fill="#164353"/>
<path d="M223.025 746.017C214.387 748.025 194.47 745.411 193.678 740.391C192.912 735.53 203.637 733.258 208.971 733.046C213.673 739.834 221.386 739.781 222.707 744.642C222.842 745.118 222.947 745.594 223.025 746.017Z" fill="#205260"/>
<path d="M50.3752 430.193C45.9379 426.15 38.7265 432.834 38.7265 432.834C38.7265 432.834 42.6094 438.591 40.0993 440.916C37.5892 443.24 34.6842 437.93 29.745 440.254C29.3476 440.44 28.9265 440.678 28.5292 440.942C24.6725 443.24 20.6564 448.075 17.4087 451.746C16.7473 452.486 16.1144 453.174 15.5339 453.78C11.7557 457.742 2.01043 460.066 0.185574 449.5C-1.63691 438.934 10.2497 426.545 23.2997 415.161C36.3497 403.776 44.7745 410.538 44.7745 410.538C44.7745 410.538 47.7319 415.32 47.7319 418.304C47.7319 421.261 50.3728 422.741 51.8527 425.567C53.3349 428.37 50.3752 430.193 50.3752 430.193Z" fill="#164353"/>
<path d="M28.5292 440.944C24.6725 443.243 20.6564 448.077 17.4088 451.749C12.5219 452.91 8.13696 452.567 7.44936 447.97C5.78391 436.876 27.9201 422.77 26.1524 430.562C25.2554 434.473 26.7876 438.196 28.5292 440.944Z" fill="#205260"/>
<path d="M800.899 735.245C798.841 734.165 796.947 731.79 795.244 728.787C795.244 728.787 793.778 719.906 795.244 710.577C796.709 701.246 792.648 693.627 779.439 690.765C766.598 687.984 758.98 694.17 761.944 719.984L761.947 719.994C759.993 730.717 759.589 742.963 764.045 753.282H803.571C803.571 753.282 809.805 739.92 800.899 735.245Z" fill="#CFD8DC"/>
<path d="M835.574 596.11C835.574 596.11 835.574 621.865 821.046 648.279C806.252 675.179 787.963 712.095 787.963 712.095C787.963 712.095 775.777 723.984 768.035 704.291C768.035 704.291 773.5 635.731 786.048 610.635C798.591 585.544 835.574 596.11 835.574 596.11Z" fill="#FFBD9A"/>
<path d="M1025.1 512.24C1025.1 512.24 1048.65 611.24 1063.62 637.354C1063.62 637.354 1060.18 648.279 1043.96 651.582C1043.96 651.582 992.747 576.299 989.445 544.6C986.14 512.9 1025.1 512.24 1025.1 512.24Z" fill="#FFBD9A"/>
<path d="M1036.49 535.511C1030.23 550.593 981.862 551.414 981.862 551.414L978.165 545.973L977.187 544.548L969.633 533.401C969.633 533.401 889.489 454.789 873.877 461.392H873.851C873.401 461.603 872.954 461.841 872.53 462.158C861.805 469.819 860.801 511.793 848.122 582.242C846.906 588.925 844.213 596.717 842.179 602.106C841.941 602.686 841.729 603.243 841.517 603.771C840.356 606.757 839.535 608.658 839.535 608.658C790.614 628.47 774.473 589.322 774.473 589.322C774.473 589.322 775.054 588.187 775.898 586.365C776.084 585.968 776.296 585.52 776.505 585.044C779.067 579.391 783.162 569.591 783.11 564.414C783.057 558.735 783.005 553.268 782.979 548.009C782.979 547.534 782.979 547.084 782.953 546.637C782.874 529.704 782.9 514.991 783.005 502.207V500.861C783.057 495.286 783.138 490.083 783.243 485.222V483.849C783.667 461.582 784.378 446.71 785.144 436.803C785.17 436.353 785.223 435.877 785.251 435.456C786.598 418.787 788.025 417.15 788.025 417.15L778.225 349.024H885.154C885.154 349.024 901.214 365.11 922.056 386.349C922.506 386.772 922.927 387.193 923.35 387.643C930.904 395.33 939.067 403.677 947.257 412.156C947.599 412.499 947.916 412.815 948.208 413.134C951.432 416.463 954.654 419.791 957.849 423.093C958.246 423.488 958.615 423.912 959.012 424.309C969.738 435.43 980.145 446.393 989.048 455.981C989.364 456.298 989.654 456.617 989.947 456.933C1002.12 470.114 1011.4 480.654 1014.59 485.567C1023.07 498.536 1029.68 515.417 1033.32 525.849C1033.32 525.849 1033.32 525.85 1033.32 525.876C1033.51 526.352 1033.67 526.775 1033.82 527.222C1035.54 532.29 1036.49 535.511 1036.49 535.511Z" fill="#8B383E"/>
<path d="M804.033 427.341C799.674 432.492 793.333 435.661 785.146 436.798C785.173 436.348 785.225 435.872 785.253 435.451C792.967 434.343 798.936 431.331 803.031 426.47C810.373 417.805 809.186 406.104 809.16 405.999L810.48 405.84C810.53 406.342 811.746 418.228 804.033 427.341Z" fill="#662C33"/>
<path d="M923.353 387.639C922.929 387.665 922.534 387.691 922.111 387.691C910.224 387.691 897.809 374.696 897.174 374.034L898.126 373.109C898.285 373.294 910.648 386.237 922.058 386.342C922.506 386.768 922.929 387.189 923.353 387.639Z" fill="#662C33"/>
<path d="M842.176 602.106C841.938 602.686 841.727 603.243 841.515 603.771C833.59 606.676 826.326 607.866 819.695 607.866C798.563 607.866 783.928 595.634 775.898 586.362C776.084 585.965 776.296 585.518 776.505 585.042C786.783 597.086 808.736 614.863 842.176 602.106Z" fill="#662C33"/>
<path d="M870.891 436.85C872.661 444.43 873.796 452.7 873.848 461.389C873.399 461.601 872.951 461.839 872.528 462.155C872.476 422.268 849.388 391.15 849.124 390.807L850.18 390.015C850.392 390.279 864.075 408.771 870.546 435.477C873.239 433.707 875.064 431.171 875.828 427.897C879.156 413.898 864.02 391.022 863.889 390.784L864.971 390.044C865.604 391.022 880.558 413.634 877.122 428.187C876.228 431.989 874.112 434.868 870.891 436.85Z" fill="#662C33"/>
<path d="M989.945 456.926C986.009 461.206 982.31 464.851 981.967 465.167L981.253 465.881L980.911 464.929C975.734 451.377 942.451 422.004 942.106 421.713L941.708 421.342L947.257 412.149C947.599 412.492 947.916 412.808 948.208 413.127L943.559 420.84C950.031 423.086 954.628 423.481 957.849 423.086C958.246 423.481 958.615 423.905 959.012 424.302C957.93 424.488 956.766 424.592 955.553 424.592C952.567 424.592 949.16 423.986 945.33 422.822C952.884 429.636 976.369 451.404 981.758 463.528C983.844 461.468 986.485 458.748 989.048 455.974C989.364 456.293 989.654 456.609 989.945 456.926Z" fill="#662C33"/>
<path d="M807.309 547.769L806.781 547.874C806.279 548.007 800.283 549.247 793.388 549.247C789.929 549.247 786.281 548.93 782.981 548.005C782.981 547.529 782.981 547.079 782.955 546.632C791.673 549.142 803.321 547.213 805.962 546.711L803.745 491.741C802.503 494.753 800.047 498.874 795.451 501.144C793.257 502.252 790.802 502.781 788.108 502.781C786.498 502.781 784.806 502.595 783.01 502.2V500.854C787.58 501.91 791.542 501.62 794.844 499.954C800.445 497.18 802.662 491.237 803.35 488.886C798.939 489.545 790.036 487.301 783.248 485.215V483.842C790.564 486.062 800.471 488.624 804.037 487.382L804.882 487.092L807.309 547.769Z" fill="#662C33"/>
<path d="M1033.82 527.218C1026.13 534.798 1010.39 546.394 986.166 546.394C983.604 546.394 980.937 546.263 978.163 545.971L977.185 544.546C1006.64 547.926 1025.1 534.11 1033.32 525.869C1033.5 526.347 1033.66 526.768 1033.82 527.218Z" fill="#662C33"/>
<path d="M904.914 59.3802C904.914 59.3802 901.975 52.6137 889.561 52.6113C879.994 52.6089 876.332 57.8932 876.332 57.8932C870.608 74.6238 864.458 138.679 862.254 140.959C861.139 142.115 790.174 189.909 790.174 189.909C828.684 190.63 852.711 238.1 852.711 238.1C853.956 222.502 897.448 160.69 897.914 155.177C898.797 144.782 917.195 98.3446 904.914 59.3802Z" fill="#2431E6"/>
<path d="M781.718 394.315C781.718 394.315 781.361 407.679 785.684 408.559C790.007 409.439 825.227 419.848 865.73 401.438C906.234 383.025 913.279 369.378 901.39 359.252C889.504 349.126 781.718 394.315 781.718 394.315Z" fill="#2431E6"/>
<path d="M765.489 199.159C765.489 199.159 728.638 194.793 707.505 203.939C707.505 203.939 701.612 230.091 730.643 288.615C759.674 347.142 752.941 384.003 785.684 397.878C814.711 410.181 900.291 373.572 902.979 361.431C909.746 330.868 857.413 277.228 854.11 246.146C850.808 215.067 820.43 168.336 765.489 199.159Z" fill="#525CEB"/>
<path d="M707.505 203.939C681.75 213.085 652.776 242.002 652.736 255.939C652.695 269.877 676.901 275.251 676.901 275.251L716.589 255.939C716.589 255.939 727.94 248.014 720.715 224.912C713.487 201.812 707.505 203.939 707.505 203.939Z" fill="#2431E6"/>
<path d="M813.328 229.711C805.634 229.711 796.088 226.939 790.157 222.711C786.888 220.382 784.939 217.755 784.518 215.112C783.062 205.964 791.97 201.312 792.353 201.12L793.552 203.47C793.243 203.63 785.979 207.46 787.128 214.695C787.433 216.623 789.013 218.65 791.689 220.558C798.33 225.292 809.814 228.069 817.292 226.751C820.661 226.156 822.867 224.943 823.844 223.149C825.041 220.953 824.02 218.469 824.009 218.443L826.435 217.398C826.5 217.546 827.975 221.043 826.181 224.376C824.806 226.929 821.97 228.602 817.751 229.347C816.386 229.594 814.894 229.711 813.328 229.711Z" fill="#CFD8DC"/>
<path d="M780.669 257.583C774.97 257.583 765.508 255.207 764.183 245.852C763.507 241.091 763.943 237.12 764.326 233.618C764.89 228.459 765.337 224.384 762.332 219.502C757.369 211.443 750.612 210.901 750.327 210.882L750.486 208.246C750.824 208.265 758.861 208.833 764.58 218.117C768.061 223.772 767.521 228.695 766.95 233.905C766.567 237.417 766.17 241.048 766.798 245.48C768.23 255.575 781.097 254.943 781.642 254.914L781.799 257.55C781.442 257.572 781.064 257.583 780.669 257.583Z" fill="#CFD8DC"/>
<path d="M788.687 210.175C788.687 210.175 808.168 196.906 803.545 182.543C798.922 168.18 736.187 169.169 720.006 186.34C703.827 203.511 755.006 214.907 755.006 214.907C758.968 206.923 784.283 206.042 788.687 210.175Z" fill="#2431E6"/>
<path d="M753.66 207.927C744.417 204.788 738.935 198.117 740.917 190.411C742.899 182.707 782.639 182.502 790.174 188.657C797.711 194.815 787.095 219.278 753.66 207.927Z" fill="#525CEB"/>
<path d="M749.261 186.274C749.261 186.274 757.438 200.244 753.66 207.927C753.66 207.927 781.716 217.613 781.716 201.915C781.716 201.915 776.429 190.149 778.42 182.543L749.261 186.274Z" fill="#EF9281"/>
<path d="M739.906 174.07C739.906 174.07 726.12 151.994 727.398 130.904C728.038 120.359 733.46 116.229 733.46 116.229C733.46 116.229 729.082 110.143 733.774 100.843C733.774 100.843 740.267 108.356 763.055 105.987C785.03 103.703 787.221 119.367 787.221 119.367C802.929 121.701 792.332 169.214 781.371 174.073L739.906 174.07Z" fill="#F24052"/>
<path d="M734.057 153.685C734.057 153.685 726.135 145.779 725.159 155.022C724.029 165.731 733.755 170.044 735.656 166.637C737.555 163.23 734.057 153.685 734.057 153.685Z" fill="#FFBD9A"/>
<path d="M789.538 154.242C789.538 154.242 797.461 146.336 798.437 155.579C799.567 166.288 789.841 170.602 787.94 167.195C786.039 163.79 789.538 154.242 789.538 154.242Z" fill="#FFBD9A"/>
<path d="M760.962 192.474C743.382 192.474 733.46 180.989 733.46 146.55C733.46 128.784 742.499 117.888 762.192 117.888C781.882 117.888 790.176 128.784 790.176 146.55C790.176 183.556 779.125 192.474 760.962 192.474Z" fill="#FFBD9A"/>
<path d="M784.354 158.831C784.663 160.599 783.122 162.343 780.911 162.728C778.703 163.114 776.66 161.993 776.353 160.228C776.046 158.46 777.585 156.716 779.796 156.331C782.003 155.945 784.045 157.066 784.354 158.831Z" fill="#EF9281"/>
<path d="M748.192 159.795C748.076 161.584 746.165 162.917 743.929 162.771C741.69 162.626 739.97 161.056 740.086 159.267C740.203 157.478 742.111 156.143 744.35 156.29C746.591 156.436 748.309 158.003 748.192 159.795Z" fill="#EF9281"/>
<path d="M776.612 140.366C776.381 140.402 776.141 140.347 775.943 140.195C773.146 138.044 768.946 138.805 768.882 138.815C768.413 138.891 767.947 138.591 767.859 138.113C767.766 137.635 768.083 137.178 768.561 137.087C768.744 137.047 773.6 136.176 777.014 138.803C777.4 139.098 777.471 139.65 777.176 140.035C777.031 140.221 776.826 140.333 776.612 140.366Z" fill="#F24052"/>
<path d="M742.965 140.487C742.749 140.461 742.544 140.354 742.394 140.173C742.087 139.797 742.142 139.243 742.516 138.936C745.846 136.207 750.724 136.93 750.912 136.964C751.39 137.04 751.718 137.487 751.645 137.965C751.571 138.446 751.102 138.765 750.643 138.701C750.612 138.689 746.334 138.08 743.631 140.297C743.434 140.454 743.194 140.516 742.965 140.487Z" fill="#F24052"/>
<path d="M774.794 150.29C774.794 152.472 773.812 154.244 772.598 154.242C771.385 154.242 770.402 152.472 770.402 150.29C770.402 148.106 771.385 146.336 772.598 146.336C773.812 146.336 774.794 148.106 774.794 150.29Z" fill="#1A4850"/>
<path d="M751.316 150.29C751.316 152.472 750.334 154.244 749.12 154.242C747.907 154.242 746.924 152.472 746.924 150.29C746.924 148.106 747.907 146.336 749.12 146.336C750.334 146.336 751.316 148.106 751.316 150.29Z" fill="#1A4850"/>
<path d="M738.854 121.701C738.854 121.701 757.59 128.56 784.449 126.631C784.449 126.631 790.176 133.769 789.481 158.957C789.481 158.957 805.21 113.586 759.296 113.586C713.382 113.586 734.067 157.951 734.067 157.951C734.067 157.951 730.313 130.202 738.854 121.701Z" fill="#F24052"/>
<path d="M762.075 162.029L760.759 160.704L764.238 157.249C760.866 152.481 760.883 141.449 760.888 140.957L762.756 140.966C762.756 141.085 762.737 152.955 766.179 156.686L766.791 157.347L762.075 162.029Z" fill="#DB614D"/>
<path d="M750.407 167.78C750.407 167.78 767.711 168.51 776.446 166.2C776.446 166.2 777.99 178.783 764.58 179.407C750.407 180.066 750.407 167.78 750.407 167.78Z" fill="#EF9281"/>
<path d="M824.346 215.35C827.649 214.736 827.318 223.378 824.346 220.872C821.375 218.369 821.044 215.964 824.346 215.35Z" fill="#CFD8DC"/>
<path d="M784.528 257.222C784.026 260.543 775.97 257.398 779.31 255.411C782.648 253.425 785.03 253.9 784.528 257.222Z" fill="#CFD8DC"/>
<path d="M749.085 275.251C749.085 275.251 743.841 288.696 744.141 296.293C744.44 303.89 746.924 302.898 746.924 302.898C746.924 302.898 742.949 304.463 742.194 308.841C741.443 313.219 752.496 316.435 753.255 316.435C754.014 316.435 761.816 313.464 761.816 313.464L763.45 288.617L756.543 284.28L749.085 275.251Z" fill="#EF9281"/>
<path d="M753.255 273.512C753.255 273.512 762.801 279.455 766.498 283.088C770.195 286.721 768.085 314.787 766.498 316.107C764.911 317.428 752.741 320.152 750.407 318.624C748.073 317.097 751.316 308.843 751.316 308.843C751.316 308.843 757.428 307.523 756.546 309.833C755.665 312.146 756.546 314.125 756.546 314.125L759.056 313.135C759.056 313.135 757.823 306.861 759.056 302.239C760.288 297.616 750.45 292.741 749.261 284.283C748.071 275.822 753.255 273.512 753.255 273.512Z" fill="#FFBD9A"/>
<path d="M654.32 259.836C651.263 246.639 664.363 241.968 682.585 244.219C703.718 246.829 747.115 252.356 756.548 275.251C756.548 275.251 759.629 284.281 751.657 288.618C729.363 300.742 660.059 284.626 654.32 259.836Z" fill="#2431E6"/>
<path d="M720.427 251.093C720.427 251.093 695.243 240.631 682.695 239.57C670.147 238.511 700.044 249.475 720.427 251.093Z" fill="#2431E6"/>
<path d="M909.22 24.3486C907.319 26.5137 904.174 34.9409 904.174 34.9409C902.853 42.019 902.087 45.9305 899.603 49.1781C897.146 52.4281 898.44 58.1596 898.44 58.1596C898.44 58.1596 888.825 63.0989 880.741 56.9962C880.741 56.9962 881.586 51.317 880.741 49.7063C879.078 46.4848 873.741 44.767 871.919 38.2694C870.096 31.7456 864.629 24.4794 864.629 24.4794C864.629 24.4794 866.187 21.0986 869.04 23.159C871.919 25.2455 873.741 30.4489 875.3 30.9771C875.616 31.0818 875.935 31.1627 876.251 31.1888C876.251 31.1888 876.278 31.1888 876.33 31.215C877.52 31.3744 878.733 31.1103 879.473 30.3966C879.525 30.3704 879.606 30.318 879.658 30.2371C882.273 27.1989 882.882 18.2697 882.775 14.2821C882.616 8.73616 882.827 1.07509 886.208 2.36938C889.589 3.66367 886.499 6.75428 889.113 18.9858L890.381 19.1452C890.619 20.016 892.944 11.7221 893.498 3.93014C893.896 -1.43261 897.407 0.549278 898.173 2.23852C898.966 3.93015 897.776 9.26435 897.541 13.1472C897.355 15.7096 897.143 18.3767 897.012 19.9637L898.492 20.7821C903.829 11.4842 902.006 7.62744 905.123 7.44186C908.214 7.25628 907.105 15.103 905.44 18.0865C904.726 19.3808 904.041 22.0741 903.484 24.7174C908.951 18.4029 908.345 15.1029 910.855 15.4979C913.446 15.9214 911.121 22.1811 909.22 24.3486Z" fill="#FFBD9A"/>
<path d="M885.604 38.9024C883.755 33.8038 877.151 31.4793 876.332 31.2152C877.522 31.3746 878.735 31.1105 879.475 30.3967C885.947 33.3018 885.604 38.9024 885.604 38.9024Z" fill="#EF9281"/>
<path d="M770.854 714.536C770.854 714.536 767.2 707.077 770.457 703.872C773.714 700.667 777.552 706.61 783.117 705.29C788.684 703.97 789.974 700.013 791.42 705.402C792.869 710.793 791.106 727.743 770.854 714.536Z" fill="#CFD8DC"/>
<path d="M791.808 714.205C791.808 714.205 776.857 719.501 769.108 714.205L771.078 720.677C771.078 720.677 787.328 722.397 789.569 718.302L791.808 714.205Z" fill="#ADBEC4"/>
<path d="M791.606 722.247C791.606 722.247 777.918 720.348 771.314 723.746V726.955C771.314 726.955 789.16 722.789 794.93 726.955L791.606 722.247Z" fill="#ADBEC4"/>
<path d="M770.657 733.617C770.657 733.617 773.312 727.148 781.639 726.684C789.967 726.22 795.586 730.804 795.586 730.804C795.586 730.804 782.379 725.363 770.657 733.617Z" fill="#ADBEC4"/>
<path d="M1123 643.735C1096.72 678.814 1060.95 685.55 1060.95 685.55C1050.57 677.256 1050.31 667.429 1050.31 667.429C1050.31 667.429 1040.29 658.5 1038.97 654.222C1037.65 649.942 1047.56 637.052 1053.5 638.374C1057.6 639.271 1059.97 642.548 1061.05 644.477C1056.14 633.409 1060.08 629.552 1067.05 630.504C1074.31 631.482 1067.45 633.2 1072.65 639.036C1073.02 639.459 1073.44 639.802 1073.89 640.118C1074.84 640.78 1075.98 641.227 1077.27 641.465C1078.41 641.677 1079.68 641.729 1081 641.651C1081.68 641.624 1082.4 641.546 1083.11 641.439C1084.46 641.227 1085.83 640.885 1087.26 640.435C1089.45 639.747 1091.72 638.772 1093.94 637.556C1103.03 632.591 1106.86 630.899 1113.78 632.669C1120.67 634.413 1120.57 639.643 1120.57 639.643L1123 643.735Z" fill="#CFD8DC"/>
<path d="M1123 643.735C1096.72 678.814 1060.95 685.55 1060.95 685.55C1079.2 677.705 1095.98 667.429 1107.44 654.774C1118.88 642.124 1123 643.735 1123 643.735Z" fill="#ADBEC4"/>
<path d="M1073.89 640.116C1074.84 640.777 1075.98 641.225 1077.27 641.463C1070.33 642.862 1069.82 649.071 1069.82 649.071L1066.87 648.12C1067.5 640.67 1073.39 640.142 1073.89 640.116Z" fill="#ADBEC4"/>
<path d="M1078.57 649.811L1075.48 649.916C1074.31 645.531 1075.82 642.916 1077.27 641.462C1078.41 641.674 1079.68 641.726 1081 641.648C1077.33 645.267 1078.57 649.811 1078.57 649.811Z" fill="#ADBEC4"/>
<path d="M1086.2 648.12L1083.14 648.515C1081.95 645.398 1082.29 643.073 1083.11 641.436C1084.46 641.225 1085.83 640.882 1087.26 640.432C1084.72 644.211 1086.2 648.12 1086.2 648.12Z" fill="#ADBEC4"/>
<path d="M792.079 322.381C792.079 322.381 798.863 358.988 785.144 373.575C771.428 388.162 780.502 376.175 784.592 357.368C788.687 338.56 785.57 318.748 792.079 322.381Z" fill="#2431E6"/>
<path d="M855.386 306.043C855.386 306.043 877.008 313.148 888.319 333.119C888.319 333.119 873.215 300.602 855.386 306.043Z" fill="#2431E6"/>
<path d="M293.774 34.0702C296.655 34.1155 305.011 37.4416 305.011 37.4416C311.144 41.215 314.556 43.2731 318.632 43.6133C322.688 43.9749 324.354 50.9437 324.354 50.9437C324.354 50.9437 340.354 54.4435 341.258 44.3556C341.258 44.3556 332.315 31.6958 331.687 29.9875C330.416 26.59 332.724 21.4842 329.134 15.7693C325.522 10.0378 323.809 1.10858 323.809 1.10858C323.809 1.10858 320.257 -0.00489631 319.869 3.49255C319.484 7.02807 322.115 11.8721 321.461 13.383C321.325 13.6875 321.173 13.9778 320.98 14.23C320.98 14.23 320.964 14.249 320.947 14.3061C320.266 15.2935 319.255 16.0168 318.23 16.0857C318.175 16.1072 318.082 16.131 317.987 16.1167C313.981 16.0168 306.955 10.4708 304.071 7.71567C300.067 3.87323 294.247 -1.11123 292.936 2.2625C291.625 5.63861 295.991 5.42209 303.3 15.5695L302.567 16.6163C303.053 17.3777 295.346 13.5329 289.199 8.71256C284.959 5.40544 284.069 9.34066 284.807 11.0418C285.527 12.7644 290.281 15.4648 293.317 17.8963C295.339 19.4785 297.459 21.113 298.723 22.0814L298.337 23.7278C287.864 21.439 286.229 17.499 284 19.6855C281.787 21.8506 288.347 26.2973 291.678 27.0682C293.115 27.4084 295.575 28.7075 297.904 30.0708C289.553 29.8852 287.514 27.2181 286.125 29.3427C284.692 31.5459 290.893 34.025 293.774 34.0702Z" fill="#FFBD9A"/>
<path d="M320.416 26.3403C317.88 21.5462 320.59 15.0914 320.944 14.3086C320.264 15.296 319.253 16.0193 318.227 16.0883C316.034 22.8333 320.416 26.3403 320.416 26.3403Z" fill="#EF9281"/>
<path d="M764.516 34.0702C761.635 34.1155 753.279 37.4416 753.279 37.4416C747.146 41.215 743.734 43.2731 739.658 43.6133C735.602 43.9749 733.936 50.9437 733.936 50.9437C733.936 50.9437 717.936 54.4435 717.032 44.3556C717.032 44.3556 725.978 31.6958 726.603 29.9875C727.874 26.59 725.566 21.4842 729.156 15.7693C732.768 10.0378 734.481 1.10858 734.481 1.10858C734.481 1.10858 738.033 -0.00489631 738.421 3.49255C738.806 7.02807 736.175 11.8721 736.829 13.383C736.965 13.6875 737.117 13.9778 737.312 14.23C737.312 14.23 737.329 14.249 737.346 14.3061C738.026 15.2935 739.037 16.0168 740.063 16.0857C740.117 16.1072 740.21 16.131 740.305 16.1167C744.312 16.0168 751.338 10.4708 754.224 7.71567C758.228 3.87323 764.048 -1.11123 765.358 2.2625C766.669 5.63861 762.304 5.42209 754.995 15.5695L755.727 16.6163C755.242 17.3777 762.948 13.5329 769.096 8.71256C773.336 5.40544 774.226 9.34066 773.488 11.0418C772.767 12.7644 768.014 15.4648 764.978 17.8963C762.955 19.4785 760.836 21.113 759.572 22.0814L759.958 23.7278C770.431 21.439 772.065 17.499 774.295 19.6855C776.507 21.8506 769.948 26.2973 766.617 27.0682C765.18 27.4084 762.72 28.7075 760.391 30.0708C768.739 29.8852 770.781 27.2181 772.17 29.3427C773.598 31.5459 767.397 34.025 764.516 34.0702Z" fill="#FFBD9A"/>
<path d="M737.874 26.3403C740.41 21.5462 737.7 15.0914 737.346 14.3086C738.026 15.296 739.037 16.0193 740.063 16.0883C742.256 22.8333 737.874 26.3403 737.874 26.3403Z" fill="#EF9281"/>
<path d="M623.909 519.064L593.172 328.748L531.627 335.622L470.081 328.748L439.344 519.064L424.581 703.646C424.581 703.646 429.275 718.94 459.976 708.374C459.976 708.374 482.755 537.17 486.276 533.399C489.797 529.628 525.969 417.802 525.969 417.802H537.282C537.282 417.802 573.451 529.628 576.974 533.399C580.496 537.17 603.274 708.374 603.274 708.374C633.978 718.94 638.67 703.646 638.67 703.646L623.909 519.064Z" fill="#0E3944"/>
<path d="M512.236 144.449C516.124 148.232 535.25 155.058 545.35 144.449L552.197 151.175C552.197 151.175 544.389 169.538 530.687 170.181C516.982 170.823 507.078 153.842 507.078 153.842L512.236 144.449Z" fill="#525CEB"/>
<path d="M566.404 142.375C589.296 132.518 663.259 106.32 663.259 106.32C663.259 106.32 712.98 44.0274 723.12 34.7817C723.12 34.7817 734.126 36.7636 737.348 50.4655C737.348 50.4655 705.331 119.02 687.929 138.646C670.525 158.273 582.382 200.72 582.382 200.72L566.404 142.375Z" fill="#525CEB"/>
<path d="M486.276 140.961C493.088 136.655 527.28 159.529 527.28 159.529C527.28 159.529 571.733 135.922 582.166 140.495C582.166 140.495 591.569 153.076 595.344 185.419C599.123 217.762 599.372 350.86 599.372 350.86C599.372 350.86 569.485 361.434 529.059 361.434C482.974 361.434 458.18 348.217 458.18 348.217C458.18 348.217 449.955 163.933 486.276 140.961Z" fill="#FFB878"/>
<path d="M514.042 137.505C514.042 137.505 518.964 152.991 514.042 158.958C514.042 158.958 519.155 169.686 528.346 170.162C538.964 170.709 542.647 158.958 542.647 158.958C542.647 158.958 537.032 144 542.647 138.744L514.042 137.505Z" fill="#EF9281"/>
<path d="M501.767 122.261C501.767 122.261 491.406 102.318 493.457 81.0049C495.508 59.6943 527.62 54.8073 549.259 65.2783C549.259 65.2783 542.835 58.9971 545.35 57.2508C547.865 55.5068 552.197 66.6749 552.197 66.6749C552.197 66.6749 559.033 64.5812 560.08 66.6749C561.126 68.771 553.078 69.9154 553.078 69.9154C553.078 69.9154 567.041 77.6597 553.996 118.875L501.767 122.261Z" fill="#F24052"/>
<path d="M500.209 109.631C500.209 109.631 492.484 101.923 491.532 110.935C490.43 121.378 499.914 125.584 501.767 122.263C503.621 118.939 500.209 109.631 500.209 109.631Z" fill="#FFBD9A"/>
<path d="M554.308 110.176C554.308 110.176 562.033 102.465 562.985 111.48C564.086 121.922 554.603 126.129 552.749 122.807C550.896 119.484 554.308 110.176 554.308 110.176Z" fill="#FFBD9A"/>
<path d="M526.445 147.452C509.302 147.452 499.628 136.255 499.628 102.672C499.628 85.3492 508.441 74.7236 527.644 74.7236C546.844 74.7236 554.931 85.3492 554.931 102.672C554.931 138.758 544.153 147.452 526.445 147.452Z" fill="#FFBD9A"/>
<path d="M549.252 114.649C549.554 116.372 548.05 118.073 545.895 118.449C543.739 118.825 541.75 117.733 541.45 116.01C541.148 114.288 542.652 112.586 544.807 112.211C546.961 111.835 548.952 112.927 549.252 114.649Z" fill="#EF9281"/>
<path d="M513.994 115.589C513.88 117.336 512.019 118.635 509.835 118.492C507.654 118.349 505.976 116.819 506.09 115.073C506.205 113.329 508.065 112.028 510.249 112.17C512.431 112.313 514.108 113.843 513.994 115.589Z" fill="#EF9281"/>
<path d="M541.412 97.2244C541.186 97.2244 540.963 97.1364 540.794 96.9603C538.417 94.4693 534.258 94.5763 534.196 94.5763C533.732 94.5787 533.328 94.2195 533.313 93.746C533.297 93.2725 533.668 92.8776 534.141 92.8633C534.325 92.8514 539.135 92.7396 542.031 95.7779C542.357 96.1205 542.345 96.6629 542.005 96.9889C541.838 97.1483 541.624 97.2244 541.412 97.2244Z" fill="#F24052"/>
<path d="M509.136 97.2239C508.924 97.2239 508.712 97.1478 508.546 96.9884C508.203 96.6624 508.191 96.12 508.515 95.7774C511.413 92.7367 516.216 92.8533 516.404 92.8628C516.878 92.8795 517.247 93.2744 517.232 93.7455C517.218 94.219 516.804 94.583 516.35 94.5758C516.319 94.5687 512.105 94.4902 509.757 96.9598C509.585 97.1359 509.362 97.2239 509.136 97.2239Z" fill="#F24052"/>
<path d="M539.93 106.32C539.93 108.449 538.971 110.174 537.789 110.174C536.606 110.174 535.647 108.447 535.647 106.32C535.647 104.191 536.606 102.466 537.789 102.466C538.974 102.466 539.93 104.191 539.93 106.32Z" fill="#1A4850"/>
<path d="M517.04 106.32C517.04 108.449 516.081 110.174 514.898 110.174C513.716 110.174 512.757 108.449 512.757 106.32C512.757 104.191 513.716 102.466 514.898 102.466C516.081 102.466 517.04 104.193 517.04 106.32Z" fill="#1A4850"/>
<path d="M517.04 129.096C517.04 129.096 532.157 131.042 539.932 127.309C539.932 127.309 535.536 137.602 527.28 136.679C519.021 135.758 517.04 129.096 517.04 129.096Z" fill="#EF9281"/>
<path d="M553.144 113.981C553.144 113.981 552.609 95.3372 545.35 81.0071C545.35 81.0071 532.554 86.9218 529.737 85.5252C526.92 84.1286 532.421 81.0071 532.421 81.0071C532.421 81.0071 511.308 87.9687 510.04 86.5721C508.772 85.1755 517.037 81.0071 517.037 81.0071L503.885 85.5252C503.885 85.5252 499.831 102.299 501.508 113.983C501.508 113.983 495.857 104.231 495.158 97.4951C494.458 90.7595 497.421 71.564 517.23 70.1674C537.042 68.7708 548.167 73.2675 553.075 82.3633C557.986 91.4566 557.377 102.646 553.144 113.981Z" fill="#F24052"/>
<path d="M529.433 123.71C527.768 123.712 526.076 123.279 525.564 123.136L526.05 121.383C527.848 121.88 530.67 122.175 531.286 121.449C531.498 121.197 531.415 120.612 531.051 119.843C528.574 114.574 528.058 101.233 528.036 100.669L529.859 100.603C529.864 100.738 530.38 114.136 532.7 119.068C533.409 120.572 533.399 121.768 532.678 122.625C531.974 123.458 530.711 123.71 529.433 123.71Z" fill="#EF9281"/>
<path d="M548.4 149.355C548.4 149.355 579.425 245.666 582.38 324.03C582.38 324.03 593.579 327.111 606.186 309.943C618.794 292.772 611.295 156.771 587.141 134.126C587.141 134.126 576.18 131.627 548.4 149.355Z" fill="#2431E6"/>
<path d="M553.456 166.197C553.456 166.197 559.009 153.295 556.542 144.446C554.074 135.598 545.35 144.446 545.35 144.446C545.35 144.446 548.876 158.934 553.456 166.197Z" fill="#525CEB"/>
<path d="M491.182 142.375C468.289 132.518 394.327 106.32 394.327 106.32C394.327 106.32 344.48 42.2098 334.339 32.9666C334.339 32.9666 321.791 40.0661 320.942 54.7602C320.942 54.7602 352.255 119.023 369.659 138.649C387.063 158.275 475.206 200.723 475.206 200.723L491.182 142.375Z" fill="#525CEB"/>
<path d="M509.188 149.355C509.188 149.355 478.163 245.666 475.208 324.03C475.208 324.03 464.009 327.111 451.402 309.943C438.794 292.772 446.294 156.771 470.447 134.126C470.447 134.126 481.406 131.627 509.188 149.355Z" fill="#2431E6"/>
<path d="M504.13 166.197C504.13 166.197 498.577 153.295 501.044 144.446C503.511 135.598 512.236 144.446 512.236 144.446C512.236 144.446 508.712 158.934 504.13 166.197Z" fill="#525CEB"/>
<path d="M666.038 753.282H604.438C600.131 728.795 607 704.282 607 704.282L635.158 699.447C637.721 714.926 640.811 721.029 645.091 724.172C645.118 724.172 645.118 724.172 645.118 724.172C648.234 726.444 651.958 727.184 656.609 728.795C661.92 730.643 664.72 733.998 666.119 737.643C668.893 744.881 666.038 753.282 666.038 753.282Z" fill="#662C33"/>
<path d="M666.119 737.643C650.93 739.544 617.566 742.794 619.6 733.998C621.292 726.654 635.37 724.674 645.091 724.172C645.118 724.172 645.117 724.172 645.117 724.172C648.234 726.444 651.958 727.184 656.609 728.795C661.917 730.644 664.717 733.998 666.119 737.643Z" fill="#8B383E"/>
<path d="M459.734 753.282H398.133C398.133 753.282 396.178 747.524 397.077 741.421C397.817 736.456 400.458 731.25 407.565 728.795C412.901 726.946 416.996 726.258 420.351 723.116C423.996 719.682 426.717 713.342 429.016 699.447L457.174 704.282C457.174 704.282 464.014 728.795 459.734 753.282Z" fill="#662C33"/>
<path d="M397.077 741.421C397.817 736.456 400.458 731.25 407.565 728.795C412.901 726.946 416.996 726.258 420.351 723.115C428.143 725.518 439.054 729.932 442.434 736.613C447.136 745.777 411.131 744.326 397.077 741.421Z" fill="#8B383E"/>
<path d="M901.983 748.87C901.983 751.459 901.719 753.281 901.719 753.281H826.885C826.885 751.802 826.911 750.324 826.99 748.87C827.834 729.297 834.016 712.311 834.016 712.311L852.719 704.281C854.329 713.922 858.476 720.077 863.682 724.093C865.055 725.176 866.482 726.075 867.962 726.841C868.65 727.212 869.335 727.555 870.049 727.871C871.607 728.585 873.218 729.166 874.831 729.642C881.436 731.65 888.119 732.071 892.794 732.785C900.767 734.024 901.983 743.244 901.983 748.87Z" fill="#164353"/>
<path d="M901.983 748.87C901.983 751.459 901.719 753.281 901.719 753.281H826.885C826.885 751.802 826.911 750.324 826.99 748.87H901.983Z" fill="#225866"/>
<path d="M867.957 726.839L857.577 730.167L855.383 726.363L863.677 724.091C865.052 725.176 866.48 726.073 867.957 726.839Z" fill="#225866"/>
<path d="M874.826 729.639L867.827 734.288L863.52 732.597L870.044 727.869C871.605 728.583 873.216 729.163 874.826 729.639Z" fill="#225866"/>
<path d="M616.06 748.87C615.875 751.406 615.216 753.281 615.216 753.281H565.371C564.738 751.827 564.288 750.376 563.97 748.87C559.057 725.016 592.18 695.828 592.18 695.828L602.694 709.855C602.694 709.855 601.478 732.308 610.381 736.983C615.718 739.781 616.405 745.066 616.06 748.87Z" fill="#164353"/>
<path d="M563.97 748.87H616.06C615.875 751.406 615.216 753.281 615.216 753.281H565.371C564.736 751.827 564.286 750.374 563.97 748.87Z" fill="#225866"/>
<path d="M608.104 735.194C608.104 735.194 587.103 730.407 577.529 736.605V733.138C577.529 733.138 595.192 724.554 608.104 735.194Z" fill="#225866"/>
<path d="M603.943 729.867C603.943 729.867 590.534 723.736 577.526 729.867L579.011 726.37C579.011 726.37 594.547 720.495 603.943 729.867Z" fill="#225866"/>
<path d="M879.397 536.806C879.423 556.855 861.619 720.315 861.619 720.315C843.816 722.085 829.552 718.519 829.552 718.519C824.665 635.679 824.189 564.438 824.189 564.438L738.868 500.487L738.657 500.328C738.657 500.328 738.34 501.781 737.757 504.37C733.532 523.125 715.647 601.685 708.198 619.674C699.718 640.173 607.005 726.372 607.005 726.372C589.782 723.995 575.169 711.521 575.169 711.521C608.451 656.314 653.833 600.947 653.833 600.947C657.373 581.057 659.909 536.811 661.415 503.739C661.441 503.237 661.468 502.709 661.494 502.207C662.498 479.807 663 462.9 663 462.9L647.361 430.831L746.71 394.324L768.977 422.827C768.977 422.827 774.076 427.555 782.106 435.111C782.475 435.454 782.846 435.799 783.214 436.141C813.04 464.271 879.397 527.824 879.397 536.806Z" fill="#8BBDDB"/>
<path d="M661.418 503.735C661.444 503.233 661.47 502.704 661.496 502.202C682.417 490.844 678.905 472.722 678.85 472.538L680.144 472.274C680.197 472.457 683.949 491.927 661.418 503.735Z" fill="#6097B2"/>
<path d="M737.334 487.673C738.047 491.634 738.576 495.914 738.866 500.485L738.654 500.326C738.654 500.326 738.338 501.779 737.755 504.368C736.832 473.302 724.02 454.944 723.86 454.733L724.943 453.967C725.074 454.126 733.158 465.801 737.067 486.167C752.178 472.748 737.384 445.249 737.227 444.985L738.388 444.352C738.549 444.642 754.214 473.752 737.334 487.673Z" fill="#6097B2"/>
<path d="M783.217 436.137C783.191 436.163 783.138 436.163 783.112 436.189C782.505 436.427 781.792 436.532 781.052 436.532C773.736 436.532 761.452 426.282 760.871 425.78L761.742 424.776C765.732 428.157 776.852 436.268 782.108 435.104C782.479 435.451 782.848 435.794 783.217 436.137Z" fill="#6097B2"/>
<path d="M654.32 259.837C654.32 259.837 684.541 254.974 699.683 264.626C714.824 274.278 734.705 299.472 734.705 299.472C734.705 299.472 711.1 302.589 708.429 318.622C708.429 318.622 691.284 277.79 654.32 259.837Z" fill="#3D3B40"/>
<path d="M608.858 275.599C596.075 282.51 574.707 308.456 573.741 324.411C572.799 339.973 584.329 354.287 592.099 366.454C616.351 404.424 641.884 437.973 652.736 482.507C652.805 482.79 708.207 504.774 773.229 426.617C773.229 426.617 736.487 377.184 723.796 335.098C718.631 317.968 713.373 299.769 703.449 284.671C692.519 268.04 673.797 258.257 654.323 259.834C637.842 261.174 621.452 268.789 608.858 275.599Z" fill="#56535B"/>
<path d="M603.493 259.672C603.493 259.672 611.668 273.643 607.892 281.325C607.892 281.325 635.95 291.011 635.95 275.313C635.95 275.313 630.661 263.548 632.655 255.941L603.493 259.672Z" fill="#EF9281"/>
<path d="M665.838 355.338C665.838 355.338 650.231 359.771 646.293 365.295C642.355 370.82 638.851 383.213 638.851 383.213H665.838L670.913 373.877L676.854 361.434L665.838 355.338Z" fill="#EF9281"/>
<path d="M640.038 244.093C640.038 244.093 650.994 239.497 643.907 206.542C639.21 184.706 632.443 181.451 628.073 181.258C628.073 181.258 622.724 173.2 604.174 177.056C591.469 179.7 581.331 187.415 576.867 201.693C572.209 216.597 581.526 248.542 593.796 251.721L640.038 244.093Z" fill="#164353"/>
<path d="M642.629 221.823C642.629 221.823 649.533 212.211 652.141 221.685C655.163 232.661 645.76 238.835 643.19 235.609C640.623 232.382 642.629 221.823 642.629 221.823Z" fill="#FFBD9A"/>
<path d="M584.852 231.952C584.852 231.952 575.226 225.069 575.799 234.878C576.463 246.241 587.35 249.068 588.747 245.187C590.146 241.307 584.852 231.952 584.852 231.952Z" fill="#FFBD9A"/>
<path d="M621.24 266.912C639.579 263.886 647.951 250.2 642.025 214.274C638.967 195.743 627.664 185.931 607.124 189.321C586.584 192.709 579.808 205.502 582.865 224.036C589.232 262.639 602.294 270.038 621.24 266.912Z" fill="#FFBD9A"/>
<path d="M591.05 235.847C591.033 237.743 592.941 239.299 595.314 239.32C597.686 239.342 599.622 237.822 599.639 235.925C599.656 234.029 597.747 232.473 595.375 232.452C593.006 232.433 591.069 233.951 591.05 235.847Z" fill="#EF9281"/>
<path d="M628.937 230.629C629.365 232.476 631.587 233.537 633.897 233.002C636.207 232.464 637.73 230.532 637.302 228.683C636.871 226.837 634.651 225.774 632.341 226.311C630.031 226.849 628.506 228.781 628.937 230.629Z" fill="#EF9281"/>
<path d="M596.213 215.835C596.032 215.835 595.849 215.783 595.689 215.673C595.266 215.385 595.156 214.807 595.444 214.384C598.009 210.622 603.155 209.901 603.374 209.87C603.914 209.811 604.347 210.163 604.416 210.667C604.483 211.177 604.128 211.643 603.619 211.712C603.572 211.717 599.068 212.361 596.981 215.428C596.8 215.695 596.508 215.835 596.213 215.835Z" fill="#1A4850"/>
<path d="M630.74 210.14C630.545 210.14 630.347 210.08 630.181 209.952C627.212 207.71 622.751 208.555 622.708 208.564C622.196 208.676 621.718 208.338 621.616 207.834C621.516 207.332 621.842 206.842 622.346 206.742C622.56 206.702 627.666 205.726 631.299 208.467C631.708 208.776 631.789 209.359 631.482 209.768C631.299 210.011 631.021 210.14 630.74 210.14Z" fill="#1A4850"/>
<path d="M599.553 225.29C599.929 227.567 601.259 229.247 602.525 229.038C603.791 228.828 604.512 226.813 604.136 224.536C603.76 222.259 602.43 220.582 601.164 220.791C599.898 220.998 599.177 223.014 599.553 225.29Z" fill="#1A4850"/>
<path d="M624.042 221.251C624.418 223.527 625.748 225.205 627.014 224.995C628.28 224.786 629.001 222.771 628.625 220.494C628.249 218.217 626.919 216.54 625.653 216.749C624.387 216.958 623.667 218.974 624.042 221.251Z" fill="#1A4850"/>
<path d="M630.918 241.928C630.918 241.928 615.011 246.197 606.187 244.5C606.187 244.5 612.284 252.18 620.992 249.965C629.698 247.753 630.918 241.928 630.918 241.928Z" fill="#EF9281"/>
<path d="M631.67 197.603C631.67 197.603 610.971 212.59 584.99 213.732L585.725 236.86C585.725 236.86 561.51 192.24 609.406 184.339C657.299 176.438 643.359 226.275 643.359 226.275C643.359 226.275 641.872 204.779 631.67 197.603Z" fill="#0E3944"/>
<path d="M614.74 235.713L614.609 233.715C614.637 233.712 617.4 233.498 618.118 231.788C618.416 231.083 617.238 228.837 616.198 226.858C614.756 224.105 612.962 220.681 612.199 216.877L614.164 216.482C614.868 220.006 616.588 223.289 617.971 225.928C619.51 228.866 620.624 230.988 619.962 232.563C618.763 235.421 614.904 235.704 614.74 235.713Z" fill="#EF9281"/>
<path d="M642.9 197.66C608.085 182.55 575.223 213.88 575.223 213.88C575.223 213.88 571.393 188.493 578.102 182.55C579.846 180.992 581.721 179.619 583.677 178.403C599.051 168.708 619.496 168.893 628.872 172.222C630.799 172.909 632.279 173.728 633.126 174.599C638.672 180.356 642.9 197.66 642.9 197.66Z" fill="#F24052"/>
<path d="M638.672 192.005C638.672 192.005 609.429 186.221 582.171 204.263C582.171 204.263 580.427 187.884 583.677 178.403C599.051 168.708 619.496 168.893 628.872 172.222C634.34 178.455 638.672 192.005 638.672 192.005Z" fill="#CFD8DC"/>
<path d="M578.102 210.894C578.102 210.894 582.739 191.206 588.985 185.66C599.372 176.435 628.565 173.266 643.909 178.812C659.253 184.358 643.909 201.122 643.909 201.122C643.909 201.122 619.453 183.606 578.102 210.894Z" fill="#A02E44"/>
<path d="M623.255 341.719C623.255 341.719 635.206 360.23 655.558 371.119C655.558 371.119 681.02 349.019 714.032 351.008C714.032 351.008 686.671 400.372 663.176 405.839C650.83 408.711 606.186 379.149 606.186 379.149C606.186 379.149 615.099 347.729 623.255 341.719Z" fill="#FFBD9A"/>
<path d="M579.247 308.161C590.184 290.357 615.413 316.676 624 335.472C632.586 354.27 638.853 358.255 638.853 358.255C638.853 358.255 613.643 368.785 613.824 387.681C613.824 387.681 555.381 347.011 579.247 308.161Z" fill="#3D3B40"/>
<path d="M655.558 362.987C655.558 362.987 670.913 347.922 721.405 328.26L714.883 307.751C720.674 300.128 731.324 300.128 731.324 300.128C731.324 300.128 757.193 336.659 752.739 347.57C749.96 354.386 696.002 361.538 655.558 362.987Z" fill="#EF9281"/>
<path d="M710.855 333.181C710.855 333.181 711.253 331.023 713.12 328.389C714.986 325.755 714.481 320.961 715.15 319.474C715.818 317.989 719.792 311.915 722.428 310.735C725.064 309.553 728.523 307.621 729.259 310.968C729.994 314.313 724.536 313.366 722.085 318.18C722.085 318.18 727.448 316.445 731.702 317.452C735.956 318.458 737.16 322.346 731.904 322.217C727.712 322.115 722.314 325.103 722.314 325.103C722.314 325.103 727.776 325.924 726.896 328.444C725.673 331.924 719.011 329.781 710.855 333.181Z" fill="#FFBD9A"/>
<path d="M337.423 401.957C341.936 413.513 360.425 433.324 360.425 433.324C360.425 433.324 405.592 406.249 426.43 417.641C447.267 429.032 463.826 435.982 477.34 431.021C490.854 426.061 432.906 320.673 432.906 320.673L357.775 292.004C357.775 292.004 356.136 311.006 347.551 314.383C338.967 317.759 329.814 349.126 330.428 355.07C331.04 361.013 337.423 401.957 337.423 401.957Z" fill="#2B292D"/>
<path d="M421.957 434.012C421.957 434.012 402.583 471.989 362.586 520.625C362.586 520.625 358.486 578.461 252.716 669.459L241.643 660.749C241.643 660.749 304.633 562.08 317.231 531.829C329.831 501.577 310.267 473.859 368.229 397.341L421.957 434.012Z" fill="#FFBD9A"/>
<path d="M360.294 366.811C343.618 398.757 338.02 439.598 338.02 439.598L330.426 458.758C330.426 458.758 357.363 473.285 388.469 478.57L400.943 445.551L360.294 366.811Z" fill="#662C33"/>
<path d="M447.276 431.021C447.276 431.021 455.534 472.846 454.174 535.802C454.174 535.802 486.716 583.791 459.86 720.71H445.772C445.772 720.71 434.264 604.219 425.459 572.651C416.653 541.086 384.139 531.4 382.378 435.423L447.276 431.021Z" fill="#FFBD9A"/>
<path d="M455.534 475.92C455.534 475.92 429.039 480.676 382.364 478.482L381.624 473.226L381.438 471.88L376.604 437.857C376.604 437.857 372.114 432.309 367.492 423.275C366.937 422.218 366.409 421.136 365.881 419.999C359.592 406.606 354.02 387.137 360.28 366.825L370.132 367.275L371.505 367.354L404.472 368.86L405.871 368.938L416.701 369.44L418.39 369.519L425.416 369.835C425.416 369.835 461.13 401.983 454.764 461.418L455.213 469.686L455.266 471.033L455.534 475.92Z" fill="#8B383E"/>
<path d="M371.508 367.351C370.582 370.073 364.349 390.253 367.492 423.272C366.937 422.216 366.409 421.133 365.881 419.996C363.53 389.804 368.945 370.97 370.132 367.27C370.292 366.82 370.37 366.611 370.37 366.583L371.612 367.032C371.612 367.061 371.56 367.168 371.508 367.351Z" fill="#662C33"/>
<path d="M455.27 471.033C445.894 473.436 429.991 474.097 414.881 474.097C401.329 474.097 388.464 473.543 381.624 473.226L381.438 471.88C393.299 472.46 424.521 473.676 444.649 471.482L443.355 450.217C443.672 425.414 436.17 404.229 428.932 389.594C410.601 386.266 405.554 372.688 404.472 368.857C404.312 368.25 404.234 367.879 404.234 367.853L405.528 367.641C405.528 367.668 405.633 368.143 405.871 368.936C407.06 372.897 411.973 384.705 428.166 388.086C423.279 378.55 418.657 372.026 416.703 369.438C416.123 368.645 415.751 368.196 415.725 368.17L416.729 367.325C416.782 367.377 417.391 368.117 418.392 369.516C424.521 377.836 445.204 409.14 444.676 450.162L445.97 471.321C449.484 470.897 452.627 470.369 455.216 469.684L455.27 471.033Z" fill="#662C33"/>
<path d="M387.779 223.499C377.265 217.708 301.504 247.419 301.504 247.419C301.504 247.419 290.295 267.412 297.283 275.252C304.271 283.091 329.06 279.634 336.655 275.252C344.249 270.869 364.365 267.552 364.365 267.552L387.779 223.499Z" fill="#56535B"/>
<path d="M454.775 160.428C454.775 160.428 470.426 166.469 476.15 184.499C481.875 202.528 464.761 248.176 470.676 269.158C476.591 290.141 475.672 329.764 457.2 338.129C438.728 346.495 400.843 331.525 392.711 308.632C384.577 285.739 388.088 199.007 403.722 169.512C419.358 140.012 451.012 154.868 454.775 160.428Z" fill="#F24052"/>
<path d="M436.791 238.219C440.919 242.668 451.53 234.738 451.53 234.738C451.53 234.738 451.314 274.083 439.879 277.1C428.445 280.117 399.302 246.106 400.501 236.863C401.7 227.615 427.638 228.35 436.791 238.219Z" fill="#56535B"/>
<path d="M392.711 228.378C392.711 228.378 404.279 238.2 424.429 242.87C444.581 247.541 455.501 238.067 465.806 251.059C481.273 270.562 456.108 306.514 442.868 325.146C437.931 332.091 427.514 351.358 425.409 369.84C425.409 369.84 390.444 379.996 360.292 366.811L358.041 323.916C358.041 323.916 339.036 266.108 392.711 228.378Z" fill="#525CEB"/>
<path d="M428.861 270.11C428.861 270.11 444.837 232.035 449.465 229.604C454.093 227.172 465.825 233.008 468.18 238.217C470.535 243.425 468.18 254.785 468.18 254.785C468.18 254.785 455.58 240.405 428.861 270.11Z" fill="#56535B"/>
<path d="M505.381 431.012C498.118 445.884 480.285 450.162 480.285 450.162C480.285 450.162 478.939 448.102 476.667 444.404C476.429 444.036 476.165 443.612 475.927 443.189C461.899 420.446 419.028 347.67 419.872 309.817C420.85 264.593 450.355 239.763 450.355 239.763C465.332 243.33 470.062 247.424 470.062 247.424C470.062 247.424 475.108 273.153 470.485 304.112C465.863 335.044 457.462 343.233 461.689 345.557C465.889 347.856 461.689 352.479 461.689 352.479C461.689 352.479 486.545 387.108 491.197 397.886C494.209 404.912 499.333 416.853 502.529 424.302C502.741 424.831 502.952 425.359 503.162 425.835C504.508 428.98 505.381 431.012 505.381 431.012Z" fill="#3D3B40"/>
<path d="M462.206 247.42C462.206 247.42 444.409 260.612 454.778 280.769L504.109 331.839C477.033 360.689 474.349 372.536 454.778 385.835L462.206 397.341C462.206 397.341 530.751 344.661 530.853 331.839C530.896 326.35 488.984 259.951 462.206 247.42Z" fill="#FFBD9A"/>
<path d="M453.695 385.84C453.695 385.84 444.293 386.882 438.371 388.364C432.449 389.844 424.555 391.324 424.307 392.559C424.06 393.791 437.383 392.559 437.383 392.559C437.383 392.559 426.527 397.017 426.282 398.735C426.037 400.453 440.098 397.493 440.098 397.493C440.098 397.493 431.216 402.92 431.709 404.4C432.201 405.88 443.143 402.18 443.143 402.18C443.143 402.18 441.109 407.36 438.999 409.827C438.999 409.827 441.119 410.991 445.418 406.215C449.717 401.438 456.584 402.973 462.02 398.735C467.454 394.495 458.644 385.202 453.695 385.84Z" fill="#FFBD9A"/>
<path d="M403.287 234.714C403.287 234.714 389.747 243.463 381.196 264.595C372.645 285.727 345.662 325.493 339.341 335.769C333.019 346.043 337.423 401.956 337.423 401.956C337.423 401.956 329.498 368.057 325.977 354.848C322.455 341.641 337.349 309.003 339.588 307.271C341.827 305.539 353.273 308.708 351.073 295.458C348.872 282.208 379.583 225.107 387.782 223.499C387.782 223.499 400.912 225.966 403.287 234.714Z" fill="#3D3B40"/>
<path d="M361.417 237.572C361.179 238.022 360.915 238.471 360.599 238.892C357.534 243.303 351.829 246.817 351.829 246.817C351.829 246.817 341.501 261.293 341.396 262.958C341.292 264.386 323.459 277.329 315.537 277.064H315.51C314.428 277.038 313.528 276.748 312.896 276.165C308.194 271.728 328.903 234.481 333.473 226.451C333.764 225.923 334.002 225.526 334.161 225.262C334.266 225.05 334.347 224.919 334.347 224.919C334.347 224.919 330.702 211.341 345.917 213.877C358.569 215.964 361.079 226.028 362.4 232.763C362.712 234.377 362.262 236.013 361.417 237.572Z" fill="#3D3B40"/>
<path d="M308.289 251.647C318.741 237.907 355.519 211.26 374.891 203.373L379.733 212.376C379.733 212.376 342.3 245.285 333.507 259.363C324.713 273.441 313.819 279.263 303.412 274.576C293.003 269.886 306.091 254.54 308.289 251.647Z" fill="#FFBD9A"/>
<path d="M357.772 234.748L355.791 237.02L354.787 238.181L351.51 241.933C351.51 241.933 343.269 251.918 343.585 255.932C343.823 258.811 327.947 271.702 315.532 277.064C310.485 279.256 305.996 280.207 303.381 278.701C294.4 273.524 296.408 257.966 301.506 247.426C305.944 238.233 325.57 226.373 330.616 223.468C331.249 223.07 331.646 222.835 331.777 222.78C331.803 222.754 331.803 222.754 331.803 222.754L333.678 215.464C333.678 215.464 340.521 211.343 345.91 213.879C345.91 213.879 334.023 214.381 335.979 219.004C337.987 223.651 354.47 234.588 357.772 234.748Z" fill="#56535B"/>
<path d="M400.934 196.63C388.969 201.543 390.684 212.374 379.723 212.374C372.935 212.374 372.036 204.608 372.036 204.608C375.1 197.977 377.054 186.671 377.477 181.282C377.927 175.893 379.723 177.98 379.723 177.98C379.723 177.478 379.697 177.002 379.671 176.526C379.511 172.907 378.852 170.266 381.229 171.825C383.922 173.569 384.848 183.818 384.848 183.818C387.068 168.867 383.765 166.647 386.354 167.968C389.894 169.764 389.92 182.971 389.92 183.369C392.773 174.677 392.007 169.712 393.989 171.694C395.997 173.702 392.985 189.657 391.798 195.522C391.534 196.842 391.348 197.661 391.348 197.661C400.829 193.009 400.934 196.63 400.934 196.63Z" fill="#FFBD9A"/>
<path d="M391.795 195.52C391.531 196.84 391.346 197.658 391.346 197.658C391.346 197.658 386.961 197.235 383.765 201.965C383.765 201.965 384.662 195.627 391.795 195.52Z" fill="#EF9281"/>
<path d="M380.382 188.705C380.461 187.437 380.989 180.173 379.723 177.98C379.723 177.478 379.697 177.002 379.671 176.526C382.416 177.109 380.675 187.173 380.382 188.705Z" fill="#EF9281"/>
<path d="M387.808 251.724C387.808 251.724 395.895 229.806 398.467 224.915C401.041 220.021 414.438 220.86 424.578 222.752C434.719 224.643 436.791 238.219 436.791 238.219C436.791 238.219 405.942 223.661 387.808 251.724Z" fill="#56535B"/>
<path d="M439.879 208.588C439.879 208.588 430.191 226.477 430.343 246.315C430.343 246.315 414.607 257.01 408.976 243.615C408.976 243.615 414.952 226.066 412.064 202.376C410.132 186.511 439.879 208.588 439.879 208.588Z" fill="#EF9281"/>
<path d="M408.978 183.766C408.978 183.766 406.099 173.511 400.974 180.72C395.038 189.071 401.088 197.189 404.255 195.252C407.422 193.316 408.978 183.766 408.978 183.766Z" fill="#FFBD9A"/>
<path d="M454.721 210.132C454.721 210.132 464.982 207.277 461.475 215.395C457.412 224.8 447.333 223.837 447.348 220.125C447.362 216.416 454.721 210.132 454.721 210.132Z" fill="#FFBD9A"/>
<path d="M413.177 228.49C398.6 220.282 395.735 206.128 411.816 177.57C420.11 162.841 432.694 158.025 449.02 167.218C465.349 176.414 467.136 189.319 458.842 204.051C441.561 234.736 428.235 236.97 413.177 228.49Z" fill="#FFBD9A"/>
<path d="M448.278 211.517C447.709 213.125 445.615 213.853 443.603 213.142C441.59 212.43 440.422 210.548 440.99 208.938C441.559 207.329 443.653 206.601 445.665 207.315C447.678 208.026 448.846 209.908 448.278 211.517Z" fill="#EF9281"/>
<path d="M417.845 195.433C416.913 196.863 414.707 197.077 412.92 195.911C411.133 194.746 410.439 192.64 411.371 191.212C412.304 189.783 414.51 189.568 416.296 190.734C418.086 191.898 418.778 194.003 417.845 195.433Z" fill="#EF9281"/>
<path d="M450.364 193.054C449.991 193.054 449.651 192.802 449.556 192.424C448.73 189.171 445.125 187.256 445.09 187.24C444.681 187.025 444.521 186.521 444.735 186.112C444.947 185.703 445.449 185.543 445.863 185.757C446.039 185.848 450.169 188.046 451.176 192.015C451.29 192.462 451.019 192.916 450.571 193.031C450.5 193.045 450.431 193.054 450.364 193.054Z" fill="#F24052"/>
<path d="M430.346 178.812C430.198 178.812 430.051 178.774 429.915 178.693C429.879 178.672 426.368 176.585 423.163 177.563C422.718 177.699 422.254 177.449 422.118 177.007C421.985 176.566 422.233 176.098 422.675 175.962C426.596 174.761 430.612 177.159 430.781 177.261C431.176 177.499 431.302 178.013 431.062 178.408C430.905 178.67 430.629 178.812 430.346 178.812Z" fill="#F24052"/>
<path d="M444.34 199.973C443.32 201.783 441.678 202.792 440.674 202.224C439.667 201.657 439.679 199.73 440.698 197.92C441.716 196.109 443.36 195.1 444.364 195.667C445.37 196.235 445.361 198.16 444.34 199.973Z" fill="#1A4850"/>
<path d="M423.903 189.01C422.884 190.82 421.243 191.829 420.236 191.26C419.23 190.694 419.242 188.769 420.26 186.959C421.278 185.148 422.92 184.139 423.927 184.706C424.933 185.272 424.921 187.199 423.903 189.01Z" fill="#1A4850"/>
<path d="M416.822 207.596C416.822 207.596 425.185 213.977 431.228 214.172C431.228 214.172 424.802 219.407 420.182 216.011C415.564 212.616 416.822 207.596 416.822 207.596Z" fill="#EF9281"/>
<path d="M439.946 196.314C439.946 196.314 443.783 192.602 445.356 193.909C446.926 195.215 446.106 199.783 446.106 199.783L449.465 199.868L446.688 198.75C446.688 198.75 447.583 194.008 445.856 193.026C443.396 191.624 439.946 196.314 439.946 196.314Z" fill="#F24052"/>
<path d="M425.485 188.888C425.485 188.888 426.667 183.682 424.735 183.016C422.804 182.35 419.325 185.421 419.325 185.421L417.51 182.593L419.908 184.389C419.908 184.389 423.498 181.165 425.235 182.131C427.707 183.509 425.485 188.888 425.485 188.888Z" fill="#F24052"/>
<path d="M452.891 173.323C452.891 173.323 447.669 166.067 440.457 171.829C433.246 177.592 416.979 186.814 408.978 183.766C400.974 180.72 426.484 146.626 448.632 156.609C470.78 166.595 468.787 199.095 459.574 209.428C450.362 219.761 454.721 210.135 454.721 210.135C454.721 210.135 455.337 195.474 458.413 185.76C461.492 176.043 452.891 173.323 452.891 173.323Z" fill="#F24052"/>
<path d="M428.342 204.272C427.938 204.272 427.514 204.218 427.079 204.108L427.524 202.359C429.013 202.738 429.746 202.098 430.096 201.496C430.593 200.644 430.524 199.547 430.129 199.136C429.898 198.895 429.506 198.921 428.954 199.209L428.119 197.61C429.953 196.649 431.05 197.484 431.435 197.891C432.427 198.933 432.525 200.915 431.654 202.405C430.945 203.616 429.756 204.272 428.342 204.272Z" fill="#EF9281"/>
<path d="M535.098 329.816C534.227 342.628 502.529 384.338 497.245 385.816C495.872 386.185 494.47 386.951 493.15 387.85C492.596 388.248 492.041 388.669 491.513 389.092C488.501 391.521 486.231 394.322 486.231 394.322C476.985 393.715 451.019 381.695 459.367 379.054C459.869 378.895 460.424 378.605 461.03 378.183C461.373 377.946 461.744 377.681 462.113 377.339C471.939 369.097 491.063 335.655 491.197 333.119C491.301 330.345 494.604 329.816 494.604 329.816C494.604 329.816 476.562 303.321 466.101 300.126C455.639 296.931 450.357 284.278 450.357 284.278C440.029 240.56 470.064 247.429 470.064 247.429C492.201 260.607 535.969 316.978 535.098 329.816Z" fill="#56535B"/>
<path d="M493.15 387.85C492.596 388.248 492.041 388.669 491.513 389.092C477.328 388.115 465.442 381.141 461.03 378.184C461.373 377.946 461.744 377.682 462.113 377.339C466.841 380.427 478.939 387.322 493.15 387.85Z" fill="#3E6575"/>
<path d="M361.417 237.572C361.179 238.021 360.915 238.471 360.599 238.892C358.565 238.814 356.638 238.576 354.786 238.178C345.41 236.277 338.199 231.019 333.469 226.449C332.386 225.393 331.434 224.389 330.616 223.463C331.249 223.066 331.646 222.83 331.777 222.775C332.465 223.541 333.257 224.386 334.154 225.259C338.855 229.882 346.174 235.271 355.788 237.015C357.587 237.362 359.462 237.546 361.417 237.572Z" fill="#3D3B40"/>
<path d="M503.162 425.835C498.803 433.206 490.747 442.106 476.667 444.405C476.429 444.036 476.165 443.612 475.927 443.189C490.376 441.021 498.379 431.645 502.526 424.302C502.738 424.833 502.95 425.359 503.162 425.835Z" fill="#3E6575"/>
<path d="M262.756 666.19C262.756 666.19 259.454 669.44 256.02 675.41C252.587 681.379 256.363 686.875 239.749 700.715C239.749 700.715 206.228 681.089 191.092 655.862C191.092 655.862 191.356 648.651 198.672 646.959C202.607 646.06 213.437 651.132 223.846 653.088C225.326 653.352 226.804 653.59 228.257 653.695C230.08 653.854 231.876 653.88 233.594 653.669C235.178 653.509 236.685 653.167 238.084 652.586H238.11C241.65 651.132 244.45 648.253 245.902 643.209C245.902 643.209 254.802 648.282 248.859 656.866C248.859 656.866 259.427 652.241 262.756 666.19Z" fill="#CFD8DC"/>
<path d="M239.747 700.716C239.747 700.716 206.226 681.089 191.089 655.862C191.089 655.862 196.716 654.673 201.365 663.022C206.014 671.394 242.468 690.387 239.747 700.716Z" fill="#ADBEC4"/>
<path d="M239.88 661.037C237.16 665.343 237.213 657.392 233.594 653.666C235.178 653.507 236.685 653.164 238.084 652.583H238.11C239.72 654.33 242.019 657.682 239.88 661.037Z" fill="#ADBEC4"/>
<path d="M229.34 661.275C226.461 663.997 225.536 656.89 223.846 653.085C225.326 653.35 226.804 653.587 228.257 653.692C229.947 655.993 231.534 659.188 229.34 661.275Z" fill="#ADBEC4"/>
<path d="M468.979 753.281H421.564C421.564 753.281 419.582 746.676 421.564 739.413C422.409 736.27 427.322 733.336 431.892 729.242C433.16 728.107 434.376 726.917 435.511 725.57C436.41 724.514 437.229 723.351 437.914 722.111C438.785 720.605 439.472 718.968 439.87 717.172C440.636 713.579 440.346 709.354 438.285 704.281C438.285 704.281 454.426 700.9 460.183 709.696C460.183 709.696 460.738 705.628 465.863 708.35C465.863 708.35 465.123 716.513 466.127 723.353C467.131 730.167 473.498 732.149 468.979 753.281Z" fill="#CFD8DC"/>
<path d="M456.643 724.726C456.22 725.202 455.639 725.44 455.059 725.44C454.557 725.44 454.081 725.28 453.657 724.964C451.202 723.008 445.787 719.972 437.914 722.111C438.785 720.605 439.472 718.968 439.87 717.172C443.039 716.011 449.008 715.323 456.379 721.609C457.331 722.402 457.464 723.8 456.643 724.726Z" fill="#ADBEC4"/>
<path d="M452.656 732.596L452.392 732.994C451.759 733.972 450.491 734.288 449.486 733.708C446.263 731.807 439.025 728.214 431.895 729.244C433.163 728.109 434.378 726.92 435.513 725.573C439.027 724.755 445.656 724.305 452.182 729.72C453.027 730.431 453.262 731.673 452.656 732.596Z" fill="#ADBEC4"/>
</svg>
